<!DOCTYPE svg PUBLIC "-//W3C//DTD SVG 1.1//EN" "http://www.w3.org/Graphics/SVG/1.1/DTD/svg11.dtd">
<!-- Uploaded to: SVG Repo, www.svgrepo.com, Transformed by: SVG Repo Mixer Tools -->
<svg height="147px" width="147px" version="1.1" id="Capa_1" xmlns="http://www.w3.org/2000/svg" xmlns:xlink="http://www.w3.org/1999/xlink" viewBox="0 0 297 297" xml:space="preserve" fill="#000000" transform="rotate(180)">
<g id="SVGRepo_bgCarrier" stroke-width="0"/>
<g id="SVGRepo_tracerCarrier" stroke-linecap="round" stroke-linejoin="round"/>
<g id="SVGRepo_iconCarrier"> <g> <g> <path style="fill:#A56849;" d="M48.315,203.357l1.376,6.88c1.409,7.042-0.796,14.321-5.874,19.399l-38.95,38.949 c-6.259,6.259-6.473,16.253-0.677,22.79l70.541-70.54l-26.321-26.321C47.777,197.383,47.722,200.39,48.315,203.357z"/> </g> <g> <path style="fill:#935733;" d="M259.783,5.651c-7.534-7.534-19.749-7.534-27.283,0L54.189,183.958 c-2.939,2.939-4.907,6.616-5.778,10.556l26.321,26.321L274.852,20.719L259.783,5.651z"/> </g> <g> <path style="fill:#935733;" d="M4.191,291.376c0.223,0.251,0.436,0.508,0.677,0.749c6.5,6.5,17.039,6.5,23.539,0l38.95-38.949 c5.078-5.078,12.358-7.282,19.4-5.873l6.88,1.376c2.967,0.594,5.974,0.538,8.843-0.096l-27.747-27.748L4.191,291.376z"/> </g> <g> <path style="fill:#794C2B;" d="M291.347,64.498c7.534-7.534,7.534-19.749,0-27.283l-16.495-16.495L74.732,220.835l27.747,27.748 c3.94-0.871,7.618-2.839,10.556-5.778L291.347,64.498z"/> </g> </g> </g>
</svg>